# xmcd
#
# Track frame offsets:
# 150
# 11780
# 32110
# 46655
# 61392
# 73182
# 85062
# 94980
# 107467
# 117137
# 128465
# 145845
# 163025
# 176895
# 191230
# 202217
#
# Disc length: 2840 seconds
#
#
# Revision: 0
# Processed by: cddbd v1.4PL0 Copyright (c) Steve Scherf et al.
# Submitted via: FreeRIP 2.00 
#
DISCID=e30b1610
DTITLE=Horst Chmela - Her mit meinen Hennen (der Gockala is do)
DYEAR=1995
DGENRE=Pop-Folk
TTITLE0=I steh halt auf die Volksmusik
TTITLE1=Her mit meinen Hennen (der Gockala is do)
TTITLE2=Du, die Nacht is heut so schön
TTITLE3=Tepperter Bua
TTITLE4=Aber gern hab ich sie doch
TTITLE5=Mama bring a Bier, sonst krieagst die gelbe Kart'n
TTITLE6=I war a Narr
TTITLE7=Resi, du schnarchst so laut
TTITLE8=Stamperl für's Wamperl
TTITLE9=Die Stadlkönigin
TTITLE10=I hab nix für di ausser mi
TTITLE11=Wann man hamkommt
TTITLE12=Du bist alles was ich will
TTITLE13=Hallodri Marsch
TTITLE14=Mir san a Weltpartie
TTITLE15=Was macht ein Elefant im Porzelanladen
EXTD=
EXTT0=
EXTT1=
EXTT2=
EXTT3=
EXTT4=
EXTT5=
EXTT6=
EXTT7=
EXTT8=
EXTT9=
EXTT10=
EXTT11=
EXTT12=
EXTT13=
EXTT14=
EXTT15=
PLAYORDER=
